<svg xmlns="http://www.w3.org/2000/svg" xmlns:xlink="http://www.w3.org/1999/xlink" version="1.1" width="256" height="256" viewBox="0 0 256 256" xml:space="preserve">

<defs>
</defs>
<g style="stroke: none; stroke-width: 0; stroke-dasharray: none; stroke-linecap: butt; stroke-linejoin: miter; stroke-miterlimit: 10; fill: none; fill-rule: nonzero; opacity: 1;" transform="translate(1.4065934065934016 1.4065934065934016) scale(2.81 2.81)" >
	<circle cx="45" cy="45" r="44" style="stroke: none; stroke-width: 1; stroke-dasharray: none; stroke-linecap: butt; stroke-linejoin: miter; stroke-miterlimit: 10; fill: rgb(220,244,219); fill-rule: nonzero; opacity: 1;" transform="  matrix(1 0 0 1 0 0) "/>
	<path d="M 45 90 C 20.187 90 0 69.813 0 45 C 0 20.187 20.187 0 45 0 c 24.813 0 45 20.187 45 45 C 90 69.813 69.813 90 45 90 z M 45 2 C 21.29 2 2 21.29 2 45 c 0 23.71 19.29 43 43 43 c 23.71 0 43 -19.29 43 -43 C 88 21.29 68.71 2 45 2 z" style="stroke: none; stroke-width: 1; stroke-dasharray: none; stroke-linecap: butt; stroke-linejoin: miter; stroke-miterlimit: 10; fill: rgb(0,0,0); fill-rule: nonzero; opacity: 1;" transform=" matrix(1 0 0 1 0 0) " stroke-linecap="round" />
	<path d="M 29.238 22.714 h -3.934 c -0.552 0 -1 -0.448 -1 -1 V 16 c 0 -0.552 0.448 -1 1 -1 h 3.934 c 1.756 0 3.185 1.429 3.185 3.185 v 1.344 C 32.423 21.286 30.994 22.714 29.238 22.714 z M 26.304 20.714 h 2.934 c 0.653 0 1.185 -0.532 1.185 -1.185 v -1.344 c 0 -0.653 -0.531 -1.185 -1.185 -1.185 h -2.934 V 20.714 z" style="stroke: none; stroke-width: 1; stroke-dasharray: none; stroke-linecap: butt; stroke-linejoin: miter; stroke-miterlimit: 10; fill: rgb(0,0,0); fill-rule: nonzero; opacity: 1;" transform=" matrix(1 0 0 1 0 0) " stroke-linecap="round" />
	<path d="M 29.238 28.429 h -3.934 c -0.552 0 -1 -0.448 -1 -1 v -5.714 c 0 -0.552 0.448 -1 1 -1 h 3.934 c 1.756 0 3.185 1.429 3.185 3.185 v 1.344 C 32.423 27 30.994 28.429 29.238 28.429 z M 26.304 26.429 h 2.934 c 0.653 0 1.185 -0.532 1.185 -1.185 v -1.344 c 0 -0.653 -0.531 -1.185 -1.185 -1.185 h -2.934 V 26.429 z" style="stroke: none; stroke-width: 1; stroke-dasharray: none; stroke-linecap: butt; stroke-linejoin: miter; stroke-miterlimit: 10; fill: rgb(0,0,0); fill-rule: nonzero; opacity: 1;" transform=" matrix(1 0 0 1 0 0) " stroke-linecap="round" />
	<path d="M 42.708 28.429 h -5.781 c -0.552 0 -1 -0.448 -1 -1 V 16 c 0 -0.552 0.448 -1 1 -1 h 5.781 c 0.552 0 1 0.448 1 1 s -0.448 1 -1 1 h -4.781 v 9.429 h 4.781 c 0.552 0 1 0.448 1 1 S 43.26 28.429 42.708 28.429 z" style="stroke: none; stroke-width: 1; stroke-dasharray: none; stroke-linecap: butt; stroke-linejoin: miter; stroke-miterlimit: 10; fill: rgb(0,0,0); fill-rule: nonzero; opacity: 1;" transform=" matrix(1 0 0 1 0 0) " stroke-linecap="round" />
	<path d="M 40.956 22.714 h -4.028 c -0.552 0 -1 -0.448 -1 -1 s 0.448 -1 1 -1 h 4.028 c 0.552 0 1 0.448 1 1 S 41.508 22.714 40.956 22.714 z" style="stroke: none; stroke-width: 1; stroke-dasharray: none; stroke-linecap: butt; stroke-linejoin: miter; stroke-miterlimit: 10; fill: rgb(0,0,0); fill-rule: nonzero; opacity: 1;" transform=" matrix(1 0 0 1 0 0) " stroke-linecap="round" />
	<path d="M 50.88 28.429 h -1.061 c -1.824 0 -3.309 -1.445 -3.309 -3.22 c 0 -0.552 0.447 -1 1 -1 s 1 0.448 1 1 c 0 0.673 0.587 1.22 1.309 1.22 h 1.061 c 0.789 0 1.431 -0.601 1.431 -1.338 v -1.038 c 0 -0.738 -0.642 -1.338 -1.431 -1.338 h -0.938 c -1.893 0 -3.432 -1.498 -3.432 -3.338 v -1.039 c 0 -1.84 1.539 -3.338 3.432 -3.338 h 1.06 c 1.824 0 3.309 1.445 3.309 3.22 c 0 0.552 -0.447 1 -1 1 s -1 -0.448 -1 -1 c 0 -0.673 -0.587 -1.22 -1.309 -1.22 h -1.06 c -0.789 0 -1.432 0.6 -1.432 1.338 v 1.039 c 0 0.738 0.643 1.338 1.432 1.338 h 0.938 c 1.892 0 3.431 1.498 3.431 3.338 v 1.038 C 54.311 26.931 52.771 28.429 50.88 28.429 z" style="stroke: none; stroke-width: 1; stroke-dasharray: none; stroke-linecap: butt; stroke-linejoin: miter; stroke-miterlimit: 10; fill: rgb(0,0,0); fill-rule: nonzero; opacity: 1;" transform=" matrix(1 0 0 1 0 0) " stroke-linecap="round" />
	<path d="M 64.696 17 h -7.21 c -0.553 0 -1 -0.448 -1 -1 s 0.447 -1 1 -1 h 7.21 c 0.553 0 1 0.448 1 1 S 65.249 17 64.696 17 z" style="stroke: none; stroke-width: 1; stroke-dasharray: none; stroke-linecap: butt; stroke-linejoin: miter; stroke-miterlimit: 10; fill: rgb(0,0,0); fill-rule: nonzero; opacity: 1;" transform=" matrix(1 0 0 1 0 0) " stroke-linecap="round" />
	<path d="M 61.092 28.429 c -0.553 0 -1 -0.448 -1 -1 V 16 c 0 -0.552 0.447 -1 1 -1 s 1 0.448 1 1 v 11.429 C 62.092 27.981 61.645 28.429 61.092 28.429 z" style="stroke: none; stroke-width: 1; stroke-dasharray: none; stroke-linecap: butt; stroke-linejoin: miter; stroke-miterlimit: 10; fill: rgb(0,0,0); fill-rule: nonzero; opacity: 1;" transform=" matrix(1 0 0 1 0 0) " stroke-linecap="round" />
	<path d="M 17.971 47 h -1.06 c -1.824 0 -3.309 -1.445 -3.309 -3.22 c 0 -0.552 0.448 -1 1 -1 s 1 0.448 1 1 c 0 0.673 0.587 1.22 1.309 1.22 h 1.06 c 0.789 0 1.431 -0.6 1.431 -1.338 v -1.039 c 0 -0.738 -0.642 -1.338 -1.431 -1.338 h -0.938 c -1.892 0 -3.431 -1.498 -3.431 -3.338 V 36.91 c 0 -1.841 1.539 -3.338 3.431 -3.338 h 1.06 c 1.824 0 3.309 1.445 3.309 3.22 c 0 0.552 -0.448 1 -1 1 s -1 -0.448 -1 -1 c 0 -0.673 -0.587 -1.22 -1.309 -1.22 h -1.06 c -0.789 0 -1.431 0.601 -1.431 1.338 v 1.038 c 0 0.738 0.642 1.338 1.431 1.338 h 0.938 c 1.892 0 3.431 1.498 3.431 3.338 v 1.039 C 21.402 45.502 19.863 47 17.971 47 z" style="stroke: none; stroke-width: 1; stroke-dasharray: none; stroke-linecap: butt; stroke-linejoin: miter; stroke-miterlimit: 10; fill: rgb(0,0,0); fill-rule: nonzero; opacity: 1;" transform=" matrix(1 0 0 1 0 0) " stroke-linecap="round" />
	<path d="M 31.942 47 h -5.781 c -0.552 0 -1 -0.447 -1 -1 V 34.571 c 0 -0.552 0.448 -1 1 -1 h 5.781 c 0.552 0 1 0.448 1 1 s -0.448 1 -1 1 h -4.781 V 45 h 4.781 c 0.552 0 1 0.448 1 1 C 32.942 46.553 32.495 47 31.942 47 z" style="stroke: none; stroke-width: 1; stroke-dasharray: none; stroke-linecap: butt; stroke-linejoin: miter; stroke-miterlimit: 10; fill: rgb(0,0,0); fill-rule: nonzero; opacity: 1;" transform=" matrix(1 0 0 1 0 0) " stroke-linecap="round" />
	<path d="M 30.189 41.286 h -4.028 c -0.552 0 -1 -0.448 -1 -1 s 0.448 -1 1 -1 h 4.028 c 0.552 0 1 0.448 1 1 S 30.742 41.286 30.189 41.286 z" style="stroke: none; stroke-width: 1; stroke-dasharray: none; stroke-linecap: butt; stroke-linejoin: miter; stroke-miterlimit: 10; fill: rgb(0,0,0); fill-rule: nonzero; opacity: 1;" transform=" matrix(1 0 0 1 0 0) " stroke-linecap="round" />
	<path d="M 42.239 46.717 h -4.816 c -0.552 0 -1 -0.447 -1 -1 V 34.854 c 0 -0.552 0.448 -1 1 -1 s 1 0.448 1 1 v 9.863 h 3.816 c 0.552 0 1 0.448 1 1 S 42.791 46.717 42.239 46.717 z" style="stroke: none; stroke-width: 1; stroke-dasharray: none; stroke-linecap: butt; stroke-linejoin: miter; stroke-miterlimit: 10; fill: rgb(0,0,0); fill-rule: nonzero; opacity: 1;" transform=" matrix(1 0 0 1 0 0) " stroke-linecap="round" />
	<path d="M 52.238 46.717 h -4.815 c -0.553 0 -1 -0.447 -1 -1 V 34.854 c 0 -0.552 0.447 -1 1 -1 s 1 0.448 1 1 v 9.863 h 3.815 c 0.553 0 1 0.448 1 1 S 52.791 46.717 52.238 46.717 z" style="stroke: none; stroke-width: 1; stroke-dasharray: none; stroke-linecap: butt; stroke-linejoin: miter; stroke-miterlimit: 10; fill: rgb(0,0,0); fill-rule: nonzero; opacity: 1;" transform=" matrix(1 0 0 1 0 0) " stroke-linecap="round" />
	<path d="M 63.371 47 H 57.59 c -0.553 0 -1 -0.447 -1 -1 V 34.571 c 0 -0.552 0.447 -1 1 -1 h 5.781 c 0.553 0 1 0.448 1 1 s -0.447 1 -1 1 H 58.59 V 45 h 4.781 c 0.553 0 1 0.448 1 1 C 64.371 46.553 63.924 47 63.371 47 z" style="stroke: none; stroke-width: 1; stroke-dasharray: none; stroke-linecap: butt; stroke-linejoin: miter; stroke-miterlimit: 10; fill: rgb(0,0,0); fill-rule: nonzero; opacity: 1;" transform=" matrix(1 0 0 1 0 0) " stroke-linecap="round" />
	<path d="M 61.618 41.286 H 57.59 c -0.553 0 -1 -0.448 -1 -1 s 0.447 -1 1 -1 h 4.028 c 0.553 0 1 0.448 1 1 S 62.171 41.286 61.618 41.286 z" style="stroke: none; stroke-width: 1; stroke-dasharray: none; stroke-linecap: butt; stroke-linejoin: miter; stroke-miterlimit: 10; fill: rgb(0,0,0); fill-rule: nonzero; opacity: 1;" transform=" matrix(1 0 0 1 0 0) " stroke-linecap="round" />
	<path d="M 73.213 41.286 h -3.935 c -0.553 0 -1 -0.448 -1 -1 v -5.714 c 0 -0.552 0.447 -1 1 -1 h 3.935 c 1.756 0 3.185 1.429 3.185 3.185 v 1.344 C 76.397 39.857 74.969 41.286 73.213 41.286 z M 70.278 39.286 h 2.935 c 0.653 0 1.185 -0.532 1.185 -1.185 v -1.344 c 0 -0.653 -0.531 -1.185 -1.185 -1.185 h -2.935 V 39.286 z" style="stroke: none; stroke-width: 1; stroke-dasharray: none; stroke-linecap: butt; stroke-linejoin: miter; stroke-miterlimit: 10; fill: rgb(0,0,0); fill-rule: nonzero; opacity: 1;" transform=" matrix(1 0 0 1 0 0) " stroke-linecap="round" />
	<path d="M 75.397 47 c -0.553 0 -1 -0.447 -1 -1 v -3.529 c 0 -0.653 -0.531 -1.185 -1.185 -1.185 h -2.935 V 46 c 0 0.553 -0.447 1 -1 1 s -1 -0.447 -1 -1 v -5.714 c 0 -0.552 0.447 -1 1 -1 h 3.935 c 1.756 0 3.185 1.429 3.185 3.185 V 46 C 76.397 46.553 75.95 47 75.397 47 z" style="stroke: none; stroke-width: 1; stroke-dasharray: none; stroke-linecap: butt; stroke-linejoin: miter; stroke-miterlimit: 10; fill: rgb(0,0,0); fill-rule: nonzero; opacity: 1;" transform=" matrix(1 0 0 1 0 0) " stroke-linecap="round" />
	<path d="M 49.505 77.16 h -1.38 V 62.701 c 0 -1.141 -0.622 -2.192 -1.623 -2.74 c -0.999 -0.549 -2.221 -0.508 -3.183 0.107 l -4.615 2.946 c -1.455 0.928 -1.881 2.86 -0.952 4.315 c 0.888 1.391 2.694 1.842 4.124 1.066 v 8.765 h -1.38 c -1.726 0 -3.125 1.399 -3.125 3.125 s 1.399 3.125 3.125 3.125 h 9.009 c 1.726 0 3.125 -1.399 3.125 -3.125 S 51.23 77.16 49.505 77.16 z" style="stroke: none; stroke-width: 1; stroke-dasharray: none; stroke-linecap: butt; stroke-linejoin: miter; stroke-miterlimit: 10; fill: rgb(253,188,75); fill-rule: nonzero; opacity: 1;" transform=" matrix(1 0 0 1 0 0) " stroke-linecap="round" />
	<path d="M 49.505 84.409 h -9.01 c -2.274 0 -4.125 -1.851 -4.125 -4.125 s 1.85 -4.124 4.125 -4.124 h 0.38 v -6.419 c -1.53 0.176 -3.095 -0.51 -3.967 -1.874 c -1.223 -1.918 -0.659 -4.473 1.257 -5.696 l 4.615 -2.946 c 1.271 -0.812 2.881 -0.867 4.202 -0.14 c 1.321 0.724 2.143 2.11 2.143 3.616 V 76.16 h 0.38 c 2.274 0 4.124 1.85 4.124 4.124 S 51.779 84.409 49.505 84.409 z M 40.495 78.16 c -1.171 0 -2.125 0.953 -2.125 2.124 c 0 1.172 0.953 2.125 2.125 2.125 h 9.01 c 1.171 0 2.124 -0.953 2.124 -2.125 c 0 -1.171 -0.953 -2.124 -2.124 -2.124 h -1.38 c -0.553 0 -1 -0.447 -1 -1 V 62.701 c 0 -0.775 -0.423 -1.489 -1.104 -1.863 c -0.68 -0.373 -1.508 -0.347 -2.164 0.072 l -4.615 2.946 c -0.987 0.631 -1.278 1.947 -0.647 2.935 c 0.598 0.936 1.83 1.254 2.803 0.725 c 0.312 -0.168 0.686 -0.16 0.989 0.02 c 0.303 0.181 0.489 0.507 0.489 0.859 v 8.766 c 0 0.553 -0.448 1 -1 1 H 40.495 z" style="stroke: none; stroke-width: 1; stroke-dasharray: none; stroke-linecap: butt; stroke-linejoin: miter; stroke-miterlimit: 10; fill: rgb(0,0,0); fill-rule: nonzero; opacity: 1;" transform=" matrix(1 0 0 1 0 0) " stroke-linecap="round" />
	<path d="M 66.323 73.145 h -8.276 c -0.553 0 -1 -0.447 -1 -1 s 0.447 -1 1 -1 h 8.276 c 0.553 0 1 0.447 1 1 S 66.876 73.145 66.323 73.145 z" style="stroke: none; stroke-width: 1; stroke-dasharray: none; stroke-linecap: butt; stroke-linejoin: miter; stroke-miterlimit: 10; fill: rgb(0,0,0); fill-rule: nonzero; opacity: 1;" transform=" matrix(1 0 0 1 0 0) " stroke-linecap="round" />
	<path d="M 31.953 73.145 h -8.276 c -0.552 0 -1 -0.447 -1 -1 s 0.448 -1 1 -1 h 8.276 c 0.552 0 1 0.447 1 1 S 32.505 73.145 31.953 73.145 z" style="stroke: none; stroke-width: 1; stroke-dasharray: none; stroke-linecap: butt; stroke-linejoin: miter; stroke-miterlimit: 10; fill: rgb(0,0,0); fill-rule: nonzero; opacity: 1;" transform=" matrix(1 0 0 1 0 0) " stroke-linecap="round" />
	<path d="M 54.226 63.919 c -0.256 0 -0.512 -0.098 -0.707 -0.293 c -0.391 -0.391 -0.391 -1.023 0 -1.414 l 5.853 -5.852 c 0.391 -0.391 1.023 -0.391 1.414 0 s 0.391 1.023 0 1.414 l -5.853 5.852 C 54.737 63.821 54.481 63.919 54.226 63.919 z" style="stroke: none; stroke-width: 1; stroke-dasharray: none; stroke-linecap: butt; stroke-linejoin: miter; stroke-miterlimit: 10; fill: rgb(0,0,0); fill-rule: nonzero; opacity: 1;" transform=" matrix(1 0 0 1 0 0) " stroke-linecap="round" />
	<path d="M 33.625 61.771 c -0.256 0 -0.512 -0.098 -0.707 -0.293 l -3.704 -3.703 c -0.391 -0.391 -0.391 -1.023 0 -1.414 s 1.023 -0.391 1.414 0 l 3.704 3.703 c 0.391 0.391 0.391 1.023 0 1.414 C 34.137 61.673 33.881 61.771 33.625 61.771 z" style="stroke: none; stroke-width: 1; stroke-dasharray: none; stroke-linecap: butt; stroke-linejoin: miter; stroke-miterlimit: 10; fill: rgb(0,0,0); fill-rule: nonzero; opacity: 1;" transform=" matrix(1 0 0 1 0 0) " stroke-linecap="round" />
	<path d="M 45 55.974 c -0.552 0 -1 -0.447 -1 -1 v -4.152 c 0 -0.553 0.448 -1 1 -1 s 1 0.447 1 1 v 4.152 C 46 55.526 45.552 55.974 45 55.974 z" style="stroke: none; stroke-width: 1; stroke-dasharray: none; stroke-linecap: butt; stroke-linejoin: miter; stroke-miterlimit: 10; fill: rgb(0,0,0); fill-rule: nonzero; opacity: 1;" transform=" matrix(1 0 0 1 0 0) " stroke-linecap="round" />
</g>
</svg>